<mxfile host="app.diagrams.net" modified="2021-03-18T01:29:03.595Z" agent="5.0 (Macintosh; Intel Mac OS X 11_2_0) AppleWebKit/537.36 (KHTML, like Gecko) Chrome/89.0.4389.90 Safari/537.36" etag="UCHCFOKbVf-AED4_gPQK" version="14.4.9" type="github">
  <diagram id="CoLfHZKhGfLM7gUMa3lG" name="Page-1">
    <mxGraphModel dx="1572" dy="934" grid="1" gridSize="9" guides="1" tooltips="1" connect="1" arrows="1" fold="1" page="0" pageScale="1" pageWidth="827" pageHeight="1169" math="0" shadow="0">
      <root>
        <mxCell id="0" />
        <mxCell id="1" parent="0" />
        <mxCell id="3C1_8dwDaU9Px9g60G54-34" value="" style="rounded=1;arcSize=10;dashed=1;strokeColor=#000000;fillColor=none;gradientColor=none;dashPattern=8 3 1 3;strokeWidth=2;" parent="1" vertex="1">
          <mxGeometry x="36" y="54" width="288" height="603" as="geometry" />
        </mxCell>
        <mxCell id="3C1_8dwDaU9Px9g60G54-36" value="" style="rounded=1;arcSize=10;dashed=1;strokeColor=#000000;fillColor=none;gradientColor=none;dashPattern=8 3 1 3;strokeWidth=2;" parent="1" vertex="1">
          <mxGeometry x="342" y="63" width="1701" height="594" as="geometry" />
        </mxCell>
        <mxCell id="3C1_8dwDaU9Px9g60G54-6" style="edgeStyle=orthogonalEdgeStyle;rounded=0;orthogonalLoop=1;jettySize=auto;html=1;exitX=1;exitY=0.5;exitDx=0;exitDy=0;exitPerimeter=0;entryX=0;entryY=0.5;entryDx=0;entryDy=0;" parent="1" source="3C1_8dwDaU9Px9g60G54-5" target="3C1_8dwDaU9Px9g60G54-11" edge="1">
          <mxGeometry relative="1" as="geometry">
            <mxPoint x="340" y="190" as="targetPoint" />
            <Array as="points">
              <mxPoint x="290" y="110" />
              <mxPoint x="290" y="310" />
            </Array>
          </mxGeometry>
        </mxCell>
        <mxCell id="3C1_8dwDaU9Px9g60G54-5" value="DB Balcao" style="strokeWidth=2;html=1;shape=mxgraph.flowchart.database;whiteSpace=wrap;fillColor=#d5e8d4;strokeColor=#82b366;" parent="1" vertex="1">
          <mxGeometry x="90" y="80" width="120" height="60" as="geometry" />
        </mxCell>
        <mxCell id="3C1_8dwDaU9Px9g60G54-12" style="edgeStyle=orthogonalEdgeStyle;rounded=0;orthogonalLoop=1;jettySize=auto;html=1;entryX=0;entryY=0.5;entryDx=0;entryDy=0;" parent="1" source="3C1_8dwDaU9Px9g60G54-7" target="3C1_8dwDaU9Px9g60G54-11" edge="1">
          <mxGeometry relative="1" as="geometry">
            <Array as="points">
              <mxPoint x="290" y="210" />
              <mxPoint x="290" y="310" />
            </Array>
          </mxGeometry>
        </mxCell>
        <mxCell id="3C1_8dwDaU9Px9g60G54-7" value="DB Delivery" style="strokeWidth=2;html=1;shape=mxgraph.flowchart.database;whiteSpace=wrap;fillColor=#d5e8d4;strokeColor=#82b366;" parent="1" vertex="1">
          <mxGeometry x="90" y="180" width="120" height="60" as="geometry" />
        </mxCell>
        <mxCell id="3C1_8dwDaU9Px9g60G54-13" style="edgeStyle=orthogonalEdgeStyle;rounded=0;orthogonalLoop=1;jettySize=auto;html=1;" parent="1" source="3C1_8dwDaU9Px9g60G54-8" edge="1">
          <mxGeometry relative="1" as="geometry">
            <mxPoint x="360" y="310" as="targetPoint" />
          </mxGeometry>
        </mxCell>
        <mxCell id="3C1_8dwDaU9Px9g60G54-8" value="DB WEB" style="strokeWidth=2;html=1;shape=mxgraph.flowchart.database;whiteSpace=wrap;fillColor=#d5e8d4;strokeColor=#82b366;" parent="1" vertex="1">
          <mxGeometry x="90" y="280" width="120" height="60" as="geometry" />
        </mxCell>
        <mxCell id="3C1_8dwDaU9Px9g60G54-14" style="edgeStyle=orthogonalEdgeStyle;rounded=0;orthogonalLoop=1;jettySize=auto;html=1;" parent="1" source="3C1_8dwDaU9Px9g60G54-9" edge="1">
          <mxGeometry relative="1" as="geometry">
            <mxPoint x="360" y="310" as="targetPoint" />
            <Array as="points">
              <mxPoint x="290" y="410" />
              <mxPoint x="290" y="310" />
            </Array>
          </mxGeometry>
        </mxCell>
        <mxCell id="3C1_8dwDaU9Px9g60G54-9" value="DB APP" style="strokeWidth=2;html=1;shape=mxgraph.flowchart.database;whiteSpace=wrap;fillColor=#d5e8d4;strokeColor=#82b366;" parent="1" vertex="1">
          <mxGeometry x="90" y="380" width="120" height="60" as="geometry" />
        </mxCell>
        <mxCell id="3C1_8dwDaU9Px9g60G54-15" style="edgeStyle=orthogonalEdgeStyle;rounded=0;orthogonalLoop=1;jettySize=auto;html=1;" parent="1" source="3C1_8dwDaU9Px9g60G54-10" edge="1">
          <mxGeometry relative="1" as="geometry">
            <mxPoint x="360" y="310" as="targetPoint" />
            <Array as="points">
              <mxPoint x="290" y="510" />
              <mxPoint x="290" y="310" />
            </Array>
          </mxGeometry>
        </mxCell>
        <mxCell id="3C1_8dwDaU9Px9g60G54-10" value="DB ML" style="strokeWidth=2;html=1;shape=mxgraph.flowchart.database;whiteSpace=wrap;fillColor=#d5e8d4;strokeColor=#82b366;" parent="1" vertex="1">
          <mxGeometry x="90" y="480" width="120" height="60" as="geometry" />
        </mxCell>
        <mxCell id="3C1_8dwDaU9Px9g60G54-19" style="edgeStyle=orthogonalEdgeStyle;rounded=0;orthogonalLoop=1;jettySize=auto;html=1;entryX=0;entryY=0.5;entryDx=0;entryDy=0;entryPerimeter=0;" parent="1" source="3C1_8dwDaU9Px9g60G54-11" target="3C1_8dwDaU9Px9g60G54-17" edge="1">
          <mxGeometry relative="1" as="geometry" />
        </mxCell>
        <mxCell id="3C1_8dwDaU9Px9g60G54-11" value="ETL" style="rounded=1;whiteSpace=wrap;html=1;absoluteArcSize=1;arcSize=14;strokeWidth=2;" parent="1" vertex="1">
          <mxGeometry x="360" y="270" width="176" height="80" as="geometry" />
        </mxCell>
        <mxCell id="3C1_8dwDaU9Px9g60G54-42" style="edgeStyle=orthogonalEdgeStyle;rounded=0;orthogonalLoop=1;jettySize=auto;html=1;entryX=0;entryY=0.5;entryDx=0;entryDy=0;" parent="1" source="3C1_8dwDaU9Px9g60G54-17" target="3C1_8dwDaU9Px9g60G54-38" edge="1">
          <mxGeometry relative="1" as="geometry" />
        </mxCell>
        <mxCell id="3C1_8dwDaU9Px9g60G54-17" value="DB Stage" style="strokeWidth=2;html=1;shape=mxgraph.flowchart.database;whiteSpace=wrap;fillColor=#fff2cc;strokeColor=#d6b656;" parent="1" vertex="1">
          <mxGeometry x="610" y="280" width="120" height="60" as="geometry" />
        </mxCell>
        <mxCell id="3C1_8dwDaU9Px9g60G54-23" style="edgeStyle=orthogonalEdgeStyle;rounded=0;orthogonalLoop=1;jettySize=auto;html=1;entryX=0;entryY=0.5;entryDx=0;entryDy=0;entryPerimeter=0;" parent="1" source="3C1_8dwDaU9Px9g60G54-20" target="3C1_8dwDaU9Px9g60G54-22" edge="1">
          <mxGeometry relative="1" as="geometry" />
        </mxCell>
        <mxCell id="3C1_8dwDaU9Px9g60G54-20" value="ETL" style="rounded=1;whiteSpace=wrap;html=1;absoluteArcSize=1;arcSize=14;strokeWidth=2;" parent="1" vertex="1">
          <mxGeometry x="1179" y="270" width="176" height="80" as="geometry" />
        </mxCell>
        <mxCell id="3C1_8dwDaU9Px9g60G54-26" style="edgeStyle=orthogonalEdgeStyle;rounded=0;orthogonalLoop=1;jettySize=auto;html=1;entryX=0;entryY=0.5;entryDx=0;entryDy=0;" parent="1" source="3C1_8dwDaU9Px9g60G54-22" target="3C1_8dwDaU9Px9g60G54-24" edge="1">
          <mxGeometry relative="1" as="geometry" />
        </mxCell>
        <mxCell id="3C1_8dwDaU9Px9g60G54-22" value="DB ODS" style="strokeWidth=2;html=1;shape=mxgraph.flowchart.database;whiteSpace=wrap;fillColor=#dae8fc;strokeColor=#6c8ebf;" parent="1" vertex="1">
          <mxGeometry x="1386" y="280" width="120" height="60" as="geometry" />
        </mxCell>
        <mxCell id="3C1_8dwDaU9Px9g60G54-27" style="edgeStyle=orthogonalEdgeStyle;rounded=0;orthogonalLoop=1;jettySize=auto;html=1;entryX=0;entryY=0.5;entryDx=0;entryDy=0;entryPerimeter=0;" parent="1" source="3C1_8dwDaU9Px9g60G54-24" target="3C1_8dwDaU9Px9g60G54-25" edge="1">
          <mxGeometry relative="1" as="geometry" />
        </mxCell>
        <mxCell id="3C1_8dwDaU9Px9g60G54-24" value="ETL" style="rounded=1;whiteSpace=wrap;html=1;absoluteArcSize=1;arcSize=14;strokeWidth=2;" parent="1" vertex="1">
          <mxGeometry x="1602" y="270" width="176" height="80" as="geometry" />
        </mxCell>
        <mxCell id="3C1_8dwDaU9Px9g60G54-25" value="DB DDS" style="strokeWidth=2;html=1;shape=mxgraph.flowchart.database;whiteSpace=wrap;fillColor=#d5e8d4;strokeColor=#82b366;" parent="1" vertex="1">
          <mxGeometry x="1872" y="280" width="120" height="60" as="geometry" />
        </mxCell>
        <mxCell id="3C1_8dwDaU9Px9g60G54-30" value="FILE" style="shape=note;whiteSpace=wrap;html=1;backgroundOutline=1;darkOpacity=0.05;" parent="1" vertex="1">
          <mxGeometry x="666" y="324" width="99" height="63" as="geometry" />
        </mxCell>
        <mxCell id="3C1_8dwDaU9Px9g60G54-31" value="FILE" style="shape=note;whiteSpace=wrap;html=1;backgroundOutline=1;darkOpacity=0.05;" parent="1" vertex="1">
          <mxGeometry x="684" y="340" width="99" height="63" as="geometry" />
        </mxCell>
        <mxCell id="3C1_8dwDaU9Px9g60G54-32" value="&lt;h1&gt;&lt;span&gt;DB Stage&lt;/span&gt;&lt;/h1&gt;&lt;h1&gt;&lt;span style=&quot;font-size: 12px ; font-weight: normal&quot;&gt;Armazene os dados de entrada no formato bruto, de forma temporÃ¡ria, de todas as bases de dados.&lt;/span&gt;&lt;br&gt;&lt;/h1&gt;&lt;div&gt;&lt;span style=&quot;font-size: 12px ; font-weight: normal&quot;&gt;&lt;br&gt;&lt;/span&gt;&lt;/div&gt;&lt;div&gt;&lt;span style=&quot;font-size: 12px ; font-weight: normal&quot;&gt;Armazena arquivos de dados planilhas, entre outros&lt;/span&gt;&lt;/div&gt;" style="text;html=1;strokeColor=none;fillColor=none;spacing=5;spacingTop=-20;whiteSpace=wrap;overflow=hidden;rounded=0;" parent="1" vertex="1">
          <mxGeometry x="594" y="441" width="225" height="225" as="geometry" />
        </mxCell>
        <mxCell id="3C1_8dwDaU9Px9g60G54-33" value="&lt;h1&gt;&lt;span&gt;DB ODS&lt;/span&gt;&lt;/h1&gt;&lt;h1&gt;&lt;span style=&quot;font-size: 12px ; font-weight: 400&quot;&gt;Armazene os dados de muitas fontes de dados,&amp;nbsp; no formato normalizado.&lt;/span&gt;&lt;/h1&gt;&lt;div&gt;&lt;span style=&quot;font-size: 12px ; font-weight: 400&quot;&gt;Permite acesso por parte do usÃ¡rio&lt;/span&gt;&lt;/div&gt;" style="text;html=1;strokeColor=none;fillColor=none;spacing=5;spacingTop=-20;whiteSpace=wrap;overflow=hidden;rounded=0;" parent="1" vertex="1">
          <mxGeometry x="1355" y="358.5" width="225" height="225" as="geometry" />
        </mxCell>
        <mxCell id="3C1_8dwDaU9Px9g60G54-35" value="Ambiente Transacional" style="text;strokeColor=none;fillColor=none;html=1;fontSize=24;fontStyle=1;verticalAlign=middle;align=center;" parent="1" vertex="1">
          <mxGeometry x="130" y="675" width="100" height="40" as="geometry" />
        </mxCell>
        <mxCell id="3C1_8dwDaU9Px9g60G54-44" style="edgeStyle=orthogonalEdgeStyle;rounded=0;orthogonalLoop=1;jettySize=auto;html=1;entryX=0;entryY=0.5;entryDx=0;entryDy=0;" parent="1" source="3C1_8dwDaU9Px9g60G54-38" target="3C1_8dwDaU9Px9g60G54-20" edge="1">
          <mxGeometry relative="1" as="geometry" />
        </mxCell>
        <mxCell id="3C1_8dwDaU9Px9g60G54-47" style="edgeStyle=orthogonalEdgeStyle;rounded=0;orthogonalLoop=1;jettySize=auto;html=1;entryX=0.5;entryY=1;entryDx=0;entryDy=0;entryPerimeter=0;" parent="1" source="3C1_8dwDaU9Px9g60G54-38" target="3C1_8dwDaU9Px9g60G54-45" edge="1">
          <mxGeometry relative="1" as="geometry" />
        </mxCell>
        <mxCell id="3C1_8dwDaU9Px9g60G54-48" style="edgeStyle=orthogonalEdgeStyle;rounded=0;orthogonalLoop=1;jettySize=auto;html=1;entryX=0.5;entryY=0;entryDx=0;entryDy=0;entryPerimeter=0;" parent="1" source="3C1_8dwDaU9Px9g60G54-38" target="3C1_8dwDaU9Px9g60G54-46" edge="1">
          <mxGeometry relative="1" as="geometry" />
        </mxCell>
        <mxCell id="3C1_8dwDaU9Px9g60G54-38" value="Data Firewall" style="rounded=1;whiteSpace=wrap;html=1;absoluteArcSize=1;arcSize=14;strokeWidth=2;" parent="1" vertex="1">
          <mxGeometry x="864" y="270" width="176" height="80" as="geometry" />
        </mxCell>
        <mxCell id="3C1_8dwDaU9Px9g60G54-45" value="DB MetaData" style="strokeWidth=2;html=1;shape=mxgraph.flowchart.database;whiteSpace=wrap;fillColor=#fff2cc;strokeColor=#d6b656;" parent="1" vertex="1">
          <mxGeometry x="891" y="140" width="120" height="60" as="geometry" />
        </mxCell>
        <mxCell id="3C1_8dwDaU9Px9g60G54-46" value="DB Quality" style="strokeWidth=2;html=1;shape=mxgraph.flowchart.database;whiteSpace=wrap;fillColor=#fff2cc;strokeColor=#d6b656;" parent="1" vertex="1">
          <mxGeometry x="891" y="441" width="120" height="60" as="geometry" />
        </mxCell>
        <mxCell id="3C1_8dwDaU9Px9g60G54-50" style="edgeStyle=orthogonalEdgeStyle;rounded=0;orthogonalLoop=1;jettySize=auto;html=1;entryX=0.5;entryY=1;entryDx=0;entryDy=0;entryPerimeter=0;" parent="1" source="3C1_8dwDaU9Px9g60G54-49" target="3C1_8dwDaU9Px9g60G54-46" edge="1">
          <mxGeometry relative="1" as="geometry" />
        </mxCell>
        <mxCell id="3C1_8dwDaU9Px9g60G54-49" value="Report Process" style="rounded=1;whiteSpace=wrap;html=1;absoluteArcSize=1;arcSize=14;strokeWidth=2;" parent="1" vertex="1">
          <mxGeometry x="1003" y="549" width="176" height="80" as="geometry" />
        </mxCell>
        <mxCell id="3C1_8dwDaU9Px9g60G54-52" value="&lt;h1&gt;&lt;span&gt;DB DDS&lt;/span&gt;&lt;/h1&gt;&lt;h1&gt;&lt;span style=&quot;font-size: 12px ; font-weight: 400&quot;&gt;Armazene os dados no formato desnormalizado, utilizando tabelas e dimensÃµes&lt;br&gt;&lt;/span&gt;&lt;/h1&gt;" style="text;html=1;strokeColor=none;fillColor=none;spacing=5;spacingTop=-20;whiteSpace=wrap;overflow=hidden;rounded=0;" parent="1" vertex="1">
          <mxGeometry x="1809" y="358.5" width="225" height="225" as="geometry" />
        </mxCell>
      </root>
    </mxGraphModel>
  </diagram>
</mxfile>
